<svg width="176" height="32" viewBox="0 0 176 32" fill="none" xmlns="http://www.w3.org/2000/svg">
<path fill-rule="evenodd" clip-rule="evenodd" d="M6.8782 31.4095L6.87993 31.4096C8.23948 31.4896 9.56177 31.5297 10.8466 31.5297C13.3899 31.5297 15.6833 31.0346 17.6813 29.9916C19.7994 28.9 21.3921 27.0982 22.4965 24.715C23.6152 22.3011 24.1229 19.1739 24.1229 15.4317C24.1229 13.4486 23.9604 11.5711 23.6297 9.80279C23.3134 7.94264 22.7035 6.2676 21.7774 4.80377C20.8044 3.26582 19.4205 2.08463 17.6866 1.2467C15.9267 0.383353 13.7489 0 11.2385 0C10.0853 0 8.83257 0.0400702 7.48171 0.119302C6.16826 0.171959 4.94321 0.237838 3.80707 0.317103L3.80463 0.317277C2.705 0.395821 1.87762 0.462351 1.33306 0.516808L0 0.650117V30.8628L1.35743 30.9759C1.67456 31.0024 2.33943 31.0545 3.34685 31.132C4.38666 31.2383 5.56441 31.3307 6.8782 31.4095ZM21.1534 24.0926C20.1606 26.2349 18.7759 27.7633 16.9993 28.6777C15.2489 29.5921 13.198 30.0493 10.8466 30.0493C9.59254 30.0493 8.2993 30.0102 6.96686 29.9318C5.66055 29.8534 4.49794 29.762 3.47902 29.6575C2.4601 29.5791 1.79388 29.5268 1.48036 29.5007V1.98983C1.48037 1.98983 1.48037 1.98982 1.48037 1.98982V29.5006C1.79389 29.5268 2.4601 29.579 3.47903 29.6574C4.49795 29.7619 5.66056 29.8533 6.96687 29.9317C8.29931 30.0101 9.59255 30.0493 10.8466 30.0493C13.198 30.0493 15.2489 29.5921 16.9993 28.6777C18.7759 27.7633 20.1606 26.2349 21.1534 24.0925C21.1655 24.0664 21.1776 24.0401 21.1895 24.0137C21.1776 24.0401 21.1655 24.0664 21.1534 24.0926ZM13.5043 22.8769L13.4862 22.8921L13.4713 22.9053C13.4713 22.9053 13.471 22.9055 13.4705 22.9059C13.4649 22.9099 13.4298 22.9355 13.348 22.975C13.2518 23.0214 13.1139 23.0762 12.9247 23.1344C12.5703 23.2183 11.9994 23.2784 11.1601 23.2784C10.3043 23.2784 9.62444 23.2661 9.11316 23.2427L9.07425 23.2388V8.32977L9.14181 8.3233C9.65216 8.27706 10.3714 8.25128 11.3169 8.25128C12.3793 8.25128 12.9125 8.33683 13.0972 8.40202L13.1094 8.40634L13.1217 8.41045C13.3288 8.47946 13.4825 8.53851 13.5913 8.58639C13.6685 8.62037 13.7058 8.64121 13.7153 8.64653C13.7166 8.64723 13.7173 8.64766 13.7176 8.64782L13.7242 8.65237C13.811 8.71277 14.1573 9.10037 14.4072 10.4499C14.6471 11.7454 14.7744 13.3482 14.7744 15.275C14.7744 17.1991 14.6839 18.6967 14.5169 19.7942L14.5148 19.8077L14.513 19.8212C14.3639 20.9399 14.166 21.673 13.9684 22.1042L13.9624 22.1174L13.9566 22.1307C13.7377 22.6341 13.5645 22.8268 13.5043 22.8769ZM7.5939 7.00605C7.98579 6.9538 8.45606 6.90155 9.0047 6.84929C9.57948 6.79704 10.3502 6.77092 11.3169 6.77092C12.388 6.77092 13.1457 6.84929 13.5898 7.00605C14.0601 7.16281 14.3867 7.3065 14.5696 7.43713C15.1705 7.85515 15.6016 8.76957 15.8628 10.1804C15.9173 10.4746 15.9661 10.7812 16.0092 11.1004C15.9661 10.7812 15.9173 10.4745 15.8628 10.1803C15.6016 8.76952 15.1705 7.8551 14.5696 7.43709C14.3867 7.30646 14.0601 7.16276 13.5899 7.006C13.1457 6.84925 12.3881 6.77087 11.3169 6.77087C10.3502 6.77087 9.57949 6.79699 9.00471 6.84925C8.45606 6.9015 7.98579 6.95375 7.5939 7.006V7.00605ZM16.2532 14.9061C16.2542 15.0279 16.2547 15.1509 16.2547 15.275C16.2547 15.275 16.2547 15.275 16.2547 15.2749C16.2547 15.1509 16.2542 15.0279 16.2532 14.9061ZM16.0447 19.5485C16.0247 19.7105 16.0033 19.8667 15.9804 20.0169C15.8432 21.0456 15.6561 21.8643 15.4189 22.473C15.385 22.5599 15.3501 22.6425 15.3142 22.7209C15.3142 22.7209 15.3142 22.7209 15.3142 22.7209C15.2978 22.7585 15.2814 22.7954 15.2649 22.8316M30.5999 0.509461L22.2236 31.0202H31.6768L33.166 24.9067H38.2859L39.7751 31.0202H49.2284L40.852 0.509461H30.5999ZM39.4489 23.4264H32.003L32.003 23.4263H39.449L40.9381 29.5398H47.2868L47.2868 29.5399H40.9381L39.4489 23.4264ZM30.5138 29.5398H24.1651L24.1651 29.5399H30.5138L30.5138 29.5398ZM38.3125 18.2533L35.8435 7.71146H35.6084L35.6084 7.71141H35.8435L38.3125 18.2533ZM36.4453 16.773H35.0066L35.726 13.7014L36.4453 16.773ZM44.1883 8.74438L51.8615 8.62694L51.7441 31.0202H60.8731L60.7557 8.62647L68.5856 8.74392V0.509461H44.1883V8.74438ZM53.2323 29.5398L53.2322 29.5399H59.385L59.385 29.5398H53.2323ZM59.2674 7.12362L67.1052 7.24119L59.2674 7.12357L59.2674 7.12362ZM81.6486 0.509461H71.3966L63.0202 31.0202H72.4735L73.9627 24.9067H79.0825L80.5717 31.0202H98.2357L97.8444 16.6262L103.882 31.0202H114.223V0.509461H105.618L106.009 14.8772L99.9712 0.509461H89.6301V29.582L81.6486 0.509461ZM124.66 30.8417L124.667 30.8438C126.247 31.3033 127.902 31.5297 129.627 31.5297C131.375 31.5297 133.033 31.304 134.593 30.8417C136.236 30.3549 137.684 29.5 138.923 28.293C140.238 27.0382 141.195 25.3576 141.849 23.3401C142.543 21.2567 142.864 18.6958 142.864 15.7061C142.864 12.7191 142.543 10.1691 141.848 8.10843C141.195 6.0946 140.237 4.42269 138.916 3.19064C137.677 1.98541 136.227 1.14377 134.581 0.684503C133.024 0.224557 131.37 0 129.627 0C127.905 0 126.253 0.225554 124.676 0.683402C123.026 1.14319 121.562 1.98629 120.297 3.19081C119.005 4.42016 118.049 6.0884 117.369 8.09957L117.366 8.10847L117.363 8.11741C116.697 10.1728 116.389 12.719 116.389 15.7061C116.389 18.6943 116.697 21.2505 117.361 23.3282L117.365 23.34L117.369 23.3518C118.048 25.3624 119.003 27.0365 120.285 28.2873L120.291 28.2936L120.297 28.2997C121.559 29.5015 123.018 30.355 124.66 30.8417ZM76.5226 13.7014L77.242 16.773H75.8032L76.5226 13.7014ZM132.992 21.0336L132.989 21.043L132.986 21.0524C132.685 22.0865 132.289 22.5296 131.968 22.7177C131.469 22.9789 130.718 23.1609 129.627 23.1609C128.808 23.1609 128.164 23.0713 127.668 22.9235C127.327 22.7947 127.024 22.5721 126.751 22.2061C126.482 21.822 126.215 21.1717 126.028 20.1466C125.841 19.0917 125.738 17.6478 125.738 15.7844C125.738 13.9193 125.841 12.4744 126.029 11.4192C126.22 10.3421 126.482 9.69513 126.724 9.34544C126.994 8.96545 127.293 8.76056 127.632 8.65609L127.657 8.64853L127.681 8.64011C128.165 8.47262 128.803 8.36885 129.627 8.36885C130.45 8.36885 131.088 8.47262 131.572 8.64011L131.596 8.64853L131.621 8.65609C131.954 8.75848 132.229 8.95465 132.47 9.3164L132.49 9.34628L132.512 9.37516C132.763 9.71473 133.034 10.3484 133.224 11.4192C133.412 12.4744 133.515 13.9193 133.515 15.7844C133.515 18.2502 133.318 19.9673 132.992 21.0336ZM142.393 0.509461L146.907 31.0202H157.065L159.197 20.9605L161.328 31.0202H171.486L176 0.509461H166.745L165.468 14.0816L164.006 7.05407H154.387L152.925 14.0816L151.648 0.509461H142.393Z" fill="#0F123F"/>
</svg>
